<svg width="66" height="48" viewBox="0 0 66 48" fill="none" xmlns="http://www.w3.org/2000/svg">
<path d="M17.8094 48C7.80938 48 0.209375 40.9 0.209375 28C0.209375 17.7 5.90938 8.9 16.2094 3.79999C21.3094 1.3 26.8094 -5.00679e-06 32.4094 -5.00679e-06L34.4094 2.79999C29.3094 2.79999 18.9094 5.7 14.0094 11.4C11.5094 14.3 10.2094 16.7 10.2094 18.6C11.3094 17.2 15.5094 15.8 19.8094 15.8C25.1094 15.8 29.2094 18 32.0094 22.4C35.0094 9.1 48.2094 -5.00679e-06 63.6094 -5.00679e-06L65.6094 2.79999C60.5094 2.79999 50.1094 5.7 45.2094 11.4C42.7094 14.3 41.4094 16.7 41.4094 18.6C42.5094 17.2 46.7094 15.8 51.0094 15.8C59.7094 15.8 65.8094 22.8 65.8094 31.4C65.8094 41 59.2094 48 49.0094 48C42.0094 48 36.1094 44.3 33.4094 38.2C30.9094 44.3 25.4094 48 17.8094 48Z" fill="white"/>
</svg>
