<svg width="134" height="48" viewBox="0 0 134 48" fill="none" xmlns="http://www.w3.org/2000/svg">
<path d="M10.112 35.224C8.46933 35.224 6.99733 34.9573 5.696 34.424C4.39467 33.8907 3.34933 33.1013 2.56 32.056C1.792 31.0107 1.38667 29.752 1.344 28.28H7.168C7.25333 29.112 7.54133 29.752 8.032 30.2C8.52267 30.6267 9.16267 30.84 9.952 30.84C10.7627 30.84 11.4027 30.6587 11.872 30.296C12.3413 29.912 12.576 29.3893 12.576 28.728C12.576 28.1733 12.384 27.7147 12 27.352C11.6373 26.9893 11.1787 26.6907 10.624 26.456C10.0907 26.2213 9.32267 25.9547 8.32 25.656C6.86933 25.208 5.68533 24.76 4.768 24.312C3.85067 23.864 3.06133 23.2027 2.4 22.328C1.73867 21.4533 1.408 20.312 1.408 18.904C1.408 16.8133 2.16533 15.1813 3.68 14.008C5.19467 12.8133 7.168 12.216 9.6 12.216C12.0747 12.216 14.0693 12.8133 15.584 14.008C17.0987 15.1813 17.9093 16.824 18.016 18.936H12.096C12.0533 18.2107 11.7867 17.6453 11.296 17.24C10.8053 16.8133 10.176 16.6 9.408 16.6C8.74667 16.6 8.21333 16.7813 7.808 17.144C7.40267 17.4853 7.2 17.9867 7.2 18.648C7.2 19.3733 7.54133 19.9387 8.224 20.344C8.90667 20.7493 9.97333 21.1867 11.424 21.656C12.8747 22.1467 14.048 22.616 14.944 23.064C15.8613 23.512 16.6507 24.1627 17.312 25.016C17.9733 25.8693 18.304 26.968 18.304 28.312C18.304 29.592 17.9733 30.7547 17.312 31.8C16.672 32.8453 15.7333 33.6773 14.496 34.296C13.2587 34.9147 11.7973 35.224 10.112 35.224ZM37.8315 12.536V16.92H31.8795V35H26.4075V16.92H20.4555V12.536H37.8315ZM46.0498 16.92V21.464H53.3778V25.688H46.0498V30.616H54.3378V35H40.5778V12.536H54.3378V16.92H46.0498ZM72.5143 12.536V16.92H63.3623V21.656H70.2103V25.912H63.3623V35H57.8903V12.536H72.5143ZM89.3743 31.032H80.9903L79.6463 35H73.9183L82.0463 12.536H88.3823L96.5103 35H90.7183L89.3743 31.032ZM87.9663 26.808L85.1823 18.584L82.4303 26.808H87.9663ZM119.08 35H113.608L104.456 21.144V35H98.984V12.536H104.456L113.608 26.456V12.536H119.08V35Z" fill="#E5E5E5"/>
<circle cx="130" cy="16" r="4" fill="#F8E7A1"/>
</svg>
